<?xml version="1.0" standalone="no"?>
<!DOCTYPE svg PUBLIC "-//W3C//DTD SVG 20010904//EN"
 "http://www.w3.org/TR/2001/REC-SVG-20010904/DTD/svg10.dtd">
<svg version="1.0" xmlns="http://www.w3.org/2000/svg"
 width="517.000000pt" height="67.000000pt" viewBox="0 0 517.000000 67.000000"
 preserveAspectRatio="xMidYMid meet">

<g transform="translate(0.000000,67.000000) scale(0.100000,-0.100000)"
fill="#000000" stroke="none">
<path d="M4765 630 c3 -5 13 -10 21 -10 12 0 14 -34 14 -215 0 -184 -2 -215
-15 -215 -8 0 -15 -4 -15 -10 0 -6 37 -10 90 -10 53 0 90 4 90 10 0 6 -7 10
-15 10 -13 0 -15 32 -15 225 l0 225 -81 0 c-51 0 -78 -4 -74 -10z"/>
<path d="M4960 630 c0 -5 9 -10 20 -10 19 0 20 -7 20 -215 0 -208 -1 -215 -20
-215 -11 0 -20 -4 -20 -10 0 -6 38 -10 95 -10 57 0 95 4 95 10 0 6 -7 10 -15
10 -13 0 -15 32 -15 225 l0 225 -80 0 c-47 0 -80 -4 -80 -10z"/>
<path d="M590 600 c0 -5 9 -10 20 -10 19 0 20 -7 20 -200 0 -193 -1 -200 -20
-200 -11 0 -20 -4 -20 -10 0 -5 20 -10 45 -10 25 0 45 5 45 10 0 6 -7 10 -15
10 -13 0 -15 26 -14 178 l1 177 51 -187 52 -188 42 0 c24 0 43 3 43 8 0 15 81
346 85 351 3 2 5 -73 5 -167 0 -143 -2 -172 -14 -172 -8 0 -18 -4 -21 -10 -4
-6 30 -10 94 -10 61 0 101 4 101 10 0 6 -9 10 -20 10 -19 0 -20 7 -20 200 0
193 1 200 20 200 11 0 20 5 20 10 0 7 -32 10 -87 8 l-87 -3 -32 -137 c-17 -75
-34 -142 -36 -149 -2 -7 -22 56 -43 139 l-39 152 -88 0 c-52 0 -88 -4 -88 -10z"/>
<path d="M1410 600 c0 -5 9 -10 20 -10 19 0 20 -7 20 -200 0 -193 -1 -200 -20
-200 -11 0 -20 -4 -20 -10 0 -6 65 -10 175 -10 l175 0 0 70 c0 39 -3 70 -7 70
-5 0 -17 -17 -28 -37 -26 -48 -62 -73 -113 -80 l-42 -6 0 97 c0 95 0 96 24 96
25 0 66 -41 66 -66 0 -8 5 -14 10 -14 6 0 10 38 10 95 0 52 -2 95 -5 95 -2 0
-11 -15 -20 -34 -16 -32 -65 -63 -79 -49 -3 4 -6 46 -6 95 l0 88 30 0 c46 0
83 -23 108 -69 13 -23 25 -41 28 -41 2 0 4 29 4 65 l0 65 -165 0 c-103 0 -165
-4 -165 -10z"/>
<path d="M2850 601 c0 -6 9 -11 20 -11 19 0 20 -7 20 -200 0 -193 -1 -200 -20
-200 -11 0 -20 -4 -20 -10 0 -14 205 -13 269 1 63 13 109 44 135 89 17 28 21
52 21 125 0 78 -3 95 -24 129 -40 64 -89 80 -258 84 -99 3 -143 1 -143 -7z
m241 -21 c40 -22 53 -68 53 -185 0 -152 -28 -205 -109 -205 l-25 0 0 200 0
200 31 0 c17 0 39 -5 50 -10z"/>
<path d="M142 554 c-24 -17 -29 -55 -12 -98 9 -25 8 -26 -30 -26 -66 0 -100
-50 -65 -96 8 -10 15 -33 15 -50 0 -75 101 -85 145 -15 8 13 11 10 16 -14 4
-16 7 -48 8 -69 1 -38 2 -39 20 -22 16 14 18 23 10 49 -5 18 -9 42 -9 53 0 20
3 19 34 -12 57 -57 131 -41 129 29 -1 20 5 41 13 48 20 16 17 63 -4 82 -11 10
-35 17 -60 17 l-40 0 14 29 c17 35 10 72 -17 97 -17 15 -25 16 -51 6 -20 -7
-37 -8 -49 -2 -25 14 -41 12 -67 -6z"/>
<path d="M1207 466 c-20 -7 -45 -20 -54 -27 -43 -36 -56 -138 -25 -198 26 -53
60 -73 124 -73 66 -1 108 18 126 55 21 43 8 54 -16 14 -25 -43 -62 -56 -96
-34 -56 37 -40 257 19 257 22 0 28 -33 9 -47 -23 -17 -9 -62 22 -74 60 -22
100 63 51 109 -31 29 -108 38 -160 18z"/>
<path d="M2175 466 c-50 -19 -83 -59 -91 -112 -17 -118 39 -186 155 -187 102
-1 152 43 159 141 5 73 -15 125 -58 147 -45 23 -118 28 -165 11z m86 -23 c10
-11 14 -47 14 -124 0 -89 -3 -111 -17 -125 -14 -14 -20 -15 -32 -4 -13 10 -16
36 -16 129 0 78 4 121 12 129 16 16 23 15 39 -5z"/>
<path d="M3498 461 c-30 -15 -38 -16 -38 -5 0 11 -18 14 -75 14 -43 0 -75 -4
-75 -10 0 -5 7 -10 15 -10 13 0 15 -21 15 -130 0 -109 -2 -130 -15 -130 -8 0
-15 -4 -15 -10 0 -6 38 -10 95 -10 57 0 95 4 95 10 0 6 -9 10 -20 10 -18 0
-20 7 -20 89 0 48 5 102 11 120 11 31 41 56 53 44 11 -11 6 -23 -9 -23 -18 0
-20 -41 -3 -58 7 -7 27 -12 45 -12 38 0 57 27 51 71 -3 18 0 29 7 29 7 0 36
-63 65 -140 47 -126 55 -140 76 -140 13 0 24 -4 24 -10 0 -14 -22 -62 -43 -92
-18 -27 -57 -39 -57 -18 0 6 5 10 11 10 6 0 9 14 7 33 -3 28 -7 32 -36 35 -41
4 -62 -12 -62 -48 0 -38 29 -60 79 -60 69 0 87 27 161 243 l65 188 29 -3 c28
-3 31 -8 73 -140 l44 -138 44 0 44 0 27 86 c14 47 28 84 30 81 3 -2 15 -40 27
-83 l23 -79 45 -3 46 -3 34 132 c22 84 41 139 53 151 19 18 19 18 -27 18 -26
0 -47 -4 -47 -10 0 -5 9 -10 19 -10 19 0 19 -2 0 -77 -11 -43 -22 -85 -25 -93
-4 -8 -17 25 -30 74 -18 67 -21 92 -13 102 10 12 -2 14 -70 14 -44 0 -81 -3
-81 -6 0 -3 7 -12 15 -20 20 -20 18 -67 -4 -129 l-18 -50 -17 60 c-10 33 -22
73 -27 89 -12 37 -12 36 6 36 8 0 15 5 15 10 0 6 -54 10 -141 10 -91 0 -138
-4 -134 -10 3 -5 13 -10 22 -10 8 0 13 -6 11 -12 -3 -7 -15 -44 -28 -83 -12
-38 -25 -73 -29 -77 -4 -5 -20 31 -35 79 -19 59 -25 88 -17 91 6 2 11 8 11 13
0 6 -41 10 -102 9 -57 -1 -112 1 -123 5 -11 3 -36 -3 -57 -14z"/>
<path d="M4506 465 c-21 -7 -43 -20 -47 -27 -11 -17 -11 -59 0 -77 11 -18 65
-19 85 -1 18 14 21 56 6 65 -17 11 -11 35 9 35 24 0 31 -19 31 -86 l0 -54 -41
0 c-86 0 -132 -45 -112 -107 16 -48 134 -68 150 -26 5 11 9 11 24 -2 24 -23
103 -23 128 -1 20 18 33 73 19 82 -4 3 -8 -2 -8 -11 0 -9 -5 -26 -11 -37 -19
-35 -29 -1 -29 102 0 110 -11 134 -68 150 -49 13 -89 12 -136 -5z m82 -212
c-4 -62 -28 -71 -28 -10 0 24 3 47 7 50 16 17 24 3 21 -40z"/>
<path d="M1767 452 c13 -10 44 -72 74 -150 l53 -133 40 3 39 3 43 133 c25 79
49 139 60 147 17 13 14 14 -28 15 -27 0 -48 -4 -48 -10 0 -5 8 -10 19 -10 18
0 18 -4 -6 -82 -14 -46 -28 -86 -32 -90 -4 -4 -21 33 -38 82 -26 71 -29 90
-18 90 8 0 15 5 15 10 0 6 -39 10 -97 10 -95 0 -97 -1 -76 -18z"/>
<path d="M2406 452 c12 -10 42 -73 70 -150 46 -125 50 -132 76 -132 l27 0 -20
-47 c-25 -58 -46 -83 -71 -83 -22 0 -24 16 -3 24 18 7 20 37 3 54 -20 20 -76
15 -88 -7 -26 -50 7 -91 73 -91 71 0 81 15 162 250 37 108 64 171 79 182 21
17 20 18 -26 18 -27 0 -48 -4 -48 -10 0 -5 7 -10 15 -10 8 0 15 -3 15 -7 0
-16 -54 -163 -60 -163 -3 0 -18 37 -33 82 -25 76 -25 82 -9 94 14 11 1 13 -83
13 -96 1 -99 0 -79 -17z"/>
</g>
</svg>
