<?xml version="1.0" encoding="UTF-8" standalone="no"?>
<svg
   xmlns:dc="http://purl.org/dc/elements/1.1/"
   xmlns:cc="http://creativecommons.org/ns#"
   xmlns:rdf="http://www.w3.org/1999/02/22-rdf-syntax-ns#"
   xmlns:svg="http://www.w3.org/2000/svg"
   xmlns="http://www.w3.org/2000/svg"
   id="svg16"
   xml:space="preserve"
   viewBox="0 0 355 56"
   height="56"
   width="355"
   version="1.1"><metadata
     id="metadata20"><rdf:RDF><cc:Work
         rdf:about=""><dc:format>image/svg+xml</dc:format><dc:type
           rdf:resource="http://purl.org/dc/dcmitype/StillImage" /></cc:Work></rdf:RDF></metadata><desc
     id="desc2">Created with Fabric.js 2.4.6</desc><defs
     id="defs4" /><g
     id="g10"
     transform="translate(204.93,30.28)"><g
       id="text8"
       style="font-style:normal;font-weight:normal;font-size:54px;font-family:Oswald;white-space:pre;opacity:1;fill:#ffffff;fill-rule:nonzero;stroke:none;stroke-width:1;stroke-linecap:butt;stroke-linejoin:miter;stroke-miterlimit:4;stroke-dasharray:none;stroke-dashoffset:0"
       aria-label="McEvoy Drywall"><path
         id="path22"
         style=""
         d="m -147.85599,16.959999 0.81,-43.74 h 5.994 l 7.722,35.4780001 7.776,-35.4780001 h 5.94 l 0.81,43.74 h -4.914 l -0.486,-31.752 -7.398,31.752 h -3.456 l -7.344,-31.752 -0.486,31.752 z" /><path
         id="path24"
         style=""
         d="m -104.05356,17.391999 q -3.834,0 -5.832,-1.512 -1.944,-1.566 -2.646,-4.374 -0.648,-2.8079999 -0.648,-6.5339999 v -7.182 q 0,-3.942 0.702,-6.696 0.702,-2.8080001 2.646,-4.2660001 1.998,-1.512 5.778,-1.512 3.402,0 5.238004,1.134 1.89,1.08 2.592,3.294 0.702,2.1600001 0.702,5.4000001 v 1.836 h -5.238004 v -1.89 q 0,-3.024 -0.702,-4.266 -0.648,-1.2420001 -2.538,-1.2420001 -2.16,0 -2.808,1.5120001 -0.594,1.512 -0.594,5.508 v 9.828 q 0,3.9959999 0.756,5.3459999 0.756,1.35 2.7,1.35 2.16,0 2.646,-1.512 0.54,-1.512 0.54,-3.8879999 v -2.538 h 5.238004 v 2.16 q 0,3.1319999 -0.756,5.3999999 -0.702,2.268 -2.592,3.456 -1.836004,1.188 -5.184004,1.188 z" /><path
         id="path26"
         style=""
         d="m -89.951119,16.959999 v -43.74 h 16.956 v 4.536 h -10.854 v 14.4720001 h 8.802 v 4.32 h -8.802 V 12.585999 h 10.962 v 4.374 z" /><path
         id="path28"
         style=""
         d="m -64.449619,16.959999 -6.156,-31.212 h 5.832 l 3.834,25.11 3.888,-25.11 h 5.616 l -5.94,31.212 z" /><path
         id="path30"
         style=""
         d="m -39.136275,17.391999 q -3.456,0 -5.454,-1.404 -1.998,-1.404 -2.862,-3.996 -0.81,-2.5919999 -0.81,-6.1019999 v -9.072 q 0,-3.51 0.81,-6.102 0.864,-2.5920001 2.862,-3.9960001 1.998,-1.404 5.454,-1.404 3.456,0 5.4,1.404 1.998,1.404 2.808,3.9960001 0.864,2.592 0.864,6.102 v 9.072 q 0,3.51 -0.864,6.1019999 -0.81,2.592 -2.808,3.996 -1.944,1.404 -5.4,1.404 z m 0,-4.266 q 1.674,0 2.322,-0.972 0.702,-0.972 0.81,-2.5379999 0.162,-1.62 0.162,-3.348 v -9.774 q 0,-1.782 -0.162,-3.348 -0.108,-1.566 -0.81,-2.538 -0.648,-1.0260001 -2.322,-1.0260001 -1.674,0 -2.376,1.0260001 -0.702,0.972 -0.864,2.538 -0.108,1.566 -0.108,3.348 v 9.774 q 0,1.728 0.108,3.348 0.162,1.5659999 0.864,2.5379999 0.702,0.972 2.376,0.972 z" /><path
         id="path32"
         style=""
         d="m -25.216088,24.789999 v -4.428 q 3.186,0 4.428,-0.486 1.242,-0.486 1.242,-1.836 0,-0.486 -0.378,-2.16 -0.378,-1.674 -0.81,-3.564 l -6.264,-26.568 h 5.832 l 4.212,23.3280001 4.05,-23.3280001 h 5.8320004 l -7.4520004,32.94 q -0.756,3.402 -3.24,4.752 -2.484,1.35 -6.75,1.35 z" /><path
         id="path34"
         style=""
         d="m 9.2949749,16.959999 v -43.74 h 9.5040001 q 4.86,0 7.668,1.512 2.862,1.458 4.05,4.428 1.242,2.97 1.242,7.398 V 2.6499991 q 0,6.966 -2.808,10.6379999 -2.754,3.672 -9.666,3.672 z m 6.1020001,-4.374 h 3.456 q 3.348,0 4.752,-1.296 1.404,-1.2959999 1.674,-3.7799999 0.324,-2.484 0.324,-5.994 V -12.686001 q 0,-3.402 -0.432,-5.508 -0.432,-2.106 -1.89,-3.078 -1.458,-0.972 -4.59,-0.972 h -3.294 z" /><path
         id="path36"
         style=""
         d="m 37.447537,16.959999 v -31.212 h 5.778 v 4.4280001 q 1.728,-2.8620001 3.456,-3.8340001 1.728,-0.972 3.456,-0.972 0.216,0 0.378,0 0.216,0 0.54,0.054 v 6.3720001 q -0.648,-0.27 -1.512,-0.432 -0.81,-0.216 -1.674,-0.216 -1.35,0 -2.484,0.648 -1.08,0.594 -2.16,2.376 V 16.959999 Z" /><path
         id="path38"
         style=""
         d="m 54.096412,24.789999 v -4.428 q 3.186,0 4.428,-0.486 1.242,-0.486 1.242,-1.836 0,-0.486 -0.378,-2.16 -0.378,-1.674 -0.81,-3.564 l -6.264,-26.568 h 5.832 l 4.212,23.3280001 4.05,-23.3280001 h 5.832 l -7.452,32.94 q -0.756,3.402 -3.24,4.752 -2.484,1.35 -6.75,1.35 z" /><path
         id="path40"
         style=""
         d="m 79.399631,16.959999 -5.022,-31.212 h 4.752 l 3.24,23.0040001 4.158,-23.0040001 h 4.428 l 4.158,22.8960001 3.24,-22.8960001 h 4.751999 l -5.183999,31.212 h -4.86 l -4.266,-22.0319999 -4.212,22.0319999 z" /><path
         id="path42"
         style=""
         d="m 112.82732,17.391999 q -1.836,0 -3.24,-1.026 -1.404,-1.08 -2.214,-2.7 -0.81,-1.674 -0.81,-3.51 0,-2.9159999 0.972,-4.9139999 0.972,-1.998 2.646,-3.348 1.728,-1.40400002 3.942,-2.43000002 2.268,-1.02599998 4.752,-1.99799998 v -2.214 q 0,-2.862 -0.54,-4.212 -0.54,-1.4040001 -2.592,-1.4040001 -1.782,0 -2.538,1.1880001 -0.756,1.188 -0.756,3.24 v 1.566 l -5.724,-0.216 q 0.108,-5.184 2.376,-7.6140001 2.268,-2.484 7.02,-2.484 4.644,0 6.588,2.538 1.944,2.5380001 1.944,7.3440001 v 14.256 q 0,2.1599999 0.162,4.1039999 0.162,1.89 0.378,3.402 h -5.292 q -0.162,-0.864 -0.432,-2.16 -0.216,-1.35 -0.324,-2.43 -0.54,1.836 -2.106,3.456 -1.512,1.566 -4.212,1.566 z m 2.268,-4.968 q 0.864,0 1.62,-0.486 0.756,-0.486 1.35,-1.08 0.594,-0.648 0.81,-1.0259999 V 0.97599908 q -1.782,1.02600002 -3.294,2.05200002 -1.458,0.972 -2.376,2.268 -0.864,1.242 -0.864,3.078 0,1.8899999 0.702,2.9699999 0.702,1.08 2.052,1.08 z" /><path
         id="path44"
         style=""
         d="m 130.74351,16.959999 v -43.74 h 5.778 v 43.74 z" /><path
         id="path46"
         style=""
         d="m 143.08335,16.959999 v -43.74 h 5.778 v 43.74 z" /></g></g><g
     id="g14"
     transform="matrix(0.4,0,0,0.4,20.02,26.47)"><path
       id="path12"
       d="m 84.752,34.279 c -5.906,-1.726 -11.985,-0.726 -17.953,1.51 4.187,-5.347 7.188,-11.191 7.188,-17.709 0,-7.596 -6.158,-13.753 -13.753,-13.753 -4.017,0 -7.62,1.732 -10.134,4.479 -2.515,-2.747 -6.118,-4.479 -10.134,-4.479 -7.596,0 -13.753,6.158 -13.753,13.753 0,6.519 3,12.363 7.188,17.709 -5.967,-2.235 -12.047,-3.235 -17.953,-1.51 -7.291,2.13 -11.474,9.769 -9.344,17.06 1.127,3.854 3.801,6.827 7.142,8.471 -1.93,3.183 -2.582,7.127 -1.456,10.982 2.131,7.291 9.769,11.475 17.06,9.344 8.517,-2.491 14.285,-9.942 18.982,-18.154 -1.217,14.175 1.63,34.929 2.185,33.636 0.878,-2.05 3.498,-5.67 5.911,-6.394 1.88,-0.563 -4.293,-16.942 -4.261,-28.488 4.825,8.695 10.738,16.785 19.684,19.4 7.291,2.131 14.928,-2.053 17.059,-9.344 1.128,-3.855 0.475,-7.8 -1.455,-10.982 3.341,-1.644 6.016,-4.616 7.142,-8.471 2.13,-7.291 -2.055,-14.93 -9.345,-17.06 z"
       transform="translate(-50.1,-50)"
       style="opacity:1;fill:#ffffff;fill-rule:nonzero;stroke:none;stroke-width:1;stroke-linecap:butt;stroke-linejoin:miter;stroke-miterlimit:4;stroke-dasharray:none;stroke-dashoffset:0" /></g></svg>
