<?xml version="1.0" standalone="no"?>
<!DOCTYPE svg PUBLIC "-//W3C//DTD SVG 20010904//EN"
 "http://www.w3.org/TR/2001/REC-SVG-20010904/DTD/svg10.dtd">
<svg version="1.0" xmlns="http://www.w3.org/2000/svg"
 width="3066.000000pt" height="562.000000pt" viewBox="0 0 3066.000000 562.000000"
 preserveAspectRatio="xMidYMid meet">

<g transform="translate(0.000000,562.000000) scale(0.100000,-0.100000)"
fill="#ffffff" stroke="none">
<path d="M2659 5321 c-279 -98 -520 -185 -535 -195 -63 -40 -104 -115 -104
-191 0 -80 1 -80 137 -31 67 24 139 47 161 51 125 21 241 -102 213 -225 -21
-96 -60 -124 -267 -195 -128 -44 -130 -48 -60 -120 30 -32 56 -47 99 -60 73
-21 92 -18 274 49 l143 53 6 -23 c9 -35 -23 -130 -58 -169 -41 -48 -44 -49
-349 -161 -287 -105 -337 -127 -414 -184 -137 -101 -245 -310 -245 -472 l0
-48 -415 0 -415 0 0 175 c0 135 -3 183 -15 204 -19 39 -101 110 -163 144 l-52
28 0 -394 c0 -225 4 -417 10 -448 31 -164 168 -296 331 -319 35 -5 296 -10
579 -10 463 0 524 -2 605 -19 314 -65 570 -261 711 -546 67 -134 94 -244 101
-400 11 -261 -54 -466 -212 -674 -71 -93 -85 -128 -85 -206 0 -122 82 -219
205 -245 84 -17 130 1 415 170 140 84 263 156 272 161 14 7 27 1 58 -27 46
-42 67 -83 76 -154 10 -76 -23 -136 -156 -279 l-113 -121 -144 0 c-79 0 -164
-5 -188 -11 -82 -21 -164 -116 -165 -191 l0 -28 374 0 374 0 4 54 c13 160 175
321 336 334 l52 4 0 344 c0 269 -3 344 -12 344 -25 0 -134 58 -173 93 -56 49
-103 132 -120 213 -24 114 -25 113 43 107 113 -10 267 50 356 140 55 56 107
145 127 217 10 34 14 287 18 1020 l6 975 23 33 c42 58 125 78 192 44 38 -19
80 -74 80 -104 0 -10 -22 -41 -49 -68 -160 -160 -158 -416 6 -571 63 -60 142
-98 218 -106 l55 -6 0 359 c0 203 -5 387 -11 424 -33 203 -227 347 -423 313
-136 -23 -232 -92 -291 -209 l-30 -59 -5 -985 c-5 -921 -6 -988 -23 -1025 -25
-55 -63 -93 -122 -121 -91 -43 -182 -27 -256 46 -42 42 -55 67 -159 330 -63
156 -113 292 -113 300 1 8 94 330 208 715 247 837 241 814 256 940 23 195 -14
433 -95 609 -105 228 -294 432 -506 544 l-75 40 -506 -177z"/>
<path d="M8147 5170 c-165 -42 -231 -162 -257 -470 -13 -151 -13 -1003 0
-1194 21 -304 71 -432 195 -499 35 -19 56 -22 170 -22 115 0 135 3 171 22 84
45 140 137 168 273 14 71 36 278 36 348 l0 32 -124 0 -124 0 -7 -112 c-13
-220 -32 -280 -93 -298 -77 -23 -112 14 -134 142 -19 107 -18 1335 0 1433 17
86 37 122 79 136 75 24 119 -33 134 -173 6 -51 13 -112 15 -135 l5 -43 124 0
124 0 -5 58 c-24 284 -78 415 -197 476 -48 24 -70 29 -149 32 -51 2 -110 -1
-131 -6z"/>
<path d="M11445 5174 c-202 -51 -275 -166 -305 -481 -15 -146 -14 -1014 0
-1180 29 -337 95 -470 256 -519 65 -19 236 -18 304 2 74 22 157 106 188 189
31 83 49 179 61 320 14 156 14 994 1 1161 -31 377 -125 502 -385 510 -55 1
-109 1 -120 -2z m173 -231 c65 -41 73 -132 74 -836 2 -600 -4 -714 -37 -793
-19 -46 -59 -69 -117 -68 -61 1 -92 28 -114 98 -20 64 -33 400 -33 841 -1 509
17 703 68 749 40 37 110 41 159 9z"/>
<path d="M14555 5175 c-5 -2 -35 -11 -66 -19 -117 -33 -191 -125 -224 -281
-24 -112 -25 -414 -2 -502 23 -86 67 -169 118 -225 l44 -46 -40 -45 c-55 -60
-99 -147 -120 -234 -15 -61 -17 -106 -12 -300 7 -298 28 -377 125 -465 65 -59
118 -73 267 -73 77 0 147 5 172 13 101 30 179 127 210 261 15 64 18 123 18
381 0 289 -1 308 -22 358 l-21 52 79 0 79 0 0 105 0 105 -260 0 c-301 0 -315
3 -352 72 -20 39 -23 59 -26 221 -4 191 6 285 39 348 23 45 45 59 94 59 75 0
113 -75 123 -242 l5 -98 135 0 135 0 -6 123 c-9 177 -39 269 -112 342 -45 44
-78 61 -157 80 -56 13 -196 19 -223 10z m189 -1170 c33 -36 36 -60 36 -309 0
-320 -18 -414 -85 -442 -37 -15 -96 -5 -125 21 -39 35 -45 80 -45 320 0 267
13 340 70 401 28 29 39 34 79 34 37 0 52 -5 70 -25z"/>
<path d="M16561 5160 c-160 -46 -227 -150 -252 -393 -13 -129 -6 -326 16 -406
34 -129 118 -238 256 -331 106 -72 203 -175 228 -243 39 -107 37 -408 -4 -487
-33 -63 -133 -77 -175 -23 -31 39 -42 96 -49 243 l-6 135 -129 3 c-71 1 -132
-1 -136 -5 -4 -4 -3 -64 1 -132 21 -326 91 -478 244 -526 44 -13 82 -16 174
-14 112 4 122 6 187 39 87 44 134 108 165 225 19 70 22 108 23 305 1 250 -7
302 -66 412 -36 68 -131 161 -236 232 -202 136 -241 222 -227 491 11 200 32
255 102 274 49 14 95 -6 116 -51 19 -40 37 -143 37 -215 0 -86 -5 -83 143 -83
l130 0 -7 93 c-17 243 -81 385 -198 440 -85 40 -231 48 -337 17z"/>
<path d="M17751 5165 c-174 -49 -243 -177 -272 -501 -17 -199 -7 -1146 14
-1281 36 -229 103 -341 231 -385 66 -23 241 -24 313 -3 131 39 204 154 239
375 32 212 40 960 13 1309 -22 281 -89 419 -229 472 -73 29 -232 35 -309 14z
m209 -224 c46 -32 61 -104 70 -341 12 -288 12 -836 0 -1040 -15 -258 -41 -314
-146 -314 -68 0 -99 27 -121 105 -20 72 -36 910 -23 1229 9 226 19 292 54 345
30 45 113 53 166 16z"/>
<path d="M20233 5165 c-142 -40 -211 -114 -250 -272 -25 -103 -25 -455 0 -538
43 -139 95 -204 261 -330 131 -99 188 -156 219 -223 20 -44 22 -62 22 -252 0
-172 -3 -211 -17 -243 -33 -72 -131 -87 -181 -27 -29 34 -43 106 -53 273 l-6
107 -134 0 c-103 0 -134 -3 -134 -13 0 -7 5 -74 11 -148 19 -245 53 -354 134
-436 71 -71 126 -86 284 -81 99 3 124 7 171 29 103 48 156 124 187 270 25 119
25 455 0 549 -40 149 -113 244 -270 351 -225 154 -256 217 -244 498 4 80 12
164 18 186 31 111 152 137 198 42 23 -47 40 -152 41 -239 l0 -58 136 0 136 0
-7 88 c-13 173 -50 300 -110 378 -14 18 -54 47 -89 64 -57 28 -77 33 -168 36
-71 3 -119 -1 -155 -11z"/>
<path d="M27465 5173 c-136 -30 -199 -76 -246 -179 -68 -148 -78 -333 -71
-1286 l5 -708 128 0 129 0 0 310 0 310 135 0 135 0 2 -307 3 -308 133 -3 132
-3 0 758 c0 420 -5 822 -11 902 -25 352 -95 473 -294 510 -58 11 -142 13 -180
4z m148 -233 c56 -44 67 -156 67 -693 l0 -418 -132 3 -133 3 -3 335 c-3 339 9
620 29 697 16 62 52 93 104 93 27 0 51 -7 68 -20z"/>
<path d="M1049 4833 c-133 -175 -253 -342 -266 -371 -69 -148 -21 -354 107
-462 25 -21 155 -122 290 -224 l245 -187 11 43 c37 146 104 258 226 380 l96
97 -304 232 c-167 128 -304 235 -304 238 0 3 45 64 100 135 54 71 107 145 116
164 22 46 21 140 -2 184 -23 46 -54 88 -64 88 -5 0 -117 -143 -251 -317z"/>
<path d="M6392 4078 l3 -1073 133 -3 132 -3 0 527 c0 290 2 525 4 523 2 -2 43
-229 90 -504 47 -275 88 -510 91 -522 5 -21 11 -23 84 -23 l79 0 15 83 c8 45
50 281 94 525 l78 442 3 -525 2 -525 135 0 135 0 0 1075 0 1076 -122 -3 -122
-3 -141 -668 c-109 -520 -143 -667 -154 -665 -11 2 -52 184 -155 671 l-140
667 -123 0 -123 0 2 -1072z"/>
<path d="M8990 4075 l0 -1075 308 2 307 3 3 133 3 132 -176 0 -175 0 0 380 0
380 145 0 145 0 0 105 0 105 -145 0 -145 0 0 350 0 350 175 0 175 0 0 105 0
105 -310 0 -310 0 0 -1075z"/>
<path d="M9885 5128 c2 -13 68 -486 145 -1053 77 -566 143 -1040 145 -1052 5
-23 8 -23 164 -23 l159 0 6 38 c15 87 286 2076 286 2093 0 18 -10 19 -140 19
-127 0 -140 -2 -140 -17 0 -28 -150 -1515 -156 -1540 -2 -13 -10 -23 -17 -23
-9 0 -33 204 -92 788 l-80 787 -143 3 -143 3 6 -23z"/>
<path d="M12274 5133 c3 -10 73 -285 155 -611 l151 -593 0 -465 0 -465 133 3
132 3 5 495 6 495 147 569 c81 314 147 574 147 578 0 5 -60 7 -132 6 l-133 -3
-78 -405 c-44 -223 -83 -409 -88 -414 -19 -21 -13 -47 -119 502 l-63 322 -134
0 c-123 0 -134 -1 -129 -17z"/>
<path d="M18720 4075 l0 -1076 133 3 132 3 5 572 5 571 170 -571 170 -572 123
-3 122 -3 0 1076 0 1075 -135 0 -135 0 -2 -646 -3 -645 -169 633 c-93 348
-171 639 -174 646 -3 9 -37 12 -123 12 l-119 0 0 -1075z"/>
<path d="M21910 4075 l0 -1077 258 4 c302 5 336 13 414 96 81 86 112 211 129
521 13 229 6 991 -11 1121 -29 225 -79 323 -196 381 -47 23 -57 24 -321 27
l-273 3 0 -1076z m469 850 c35 -18 58 -71 72 -168 6 -42 10 -312 11 -652 1
-609 -3 -690 -43 -772 -25 -51 -54 -63 -160 -63 l-79 0 0 835 0 835 85 0 c56
0 96 -5 114 -15z"/>
<path d="M23130 4076 l0 -1076 135 0 135 0 0 515 0 515 73 0 c101 0 136 -19
164 -90 12 -30 26 -91 33 -135 9 -67 49 -692 50 -777 l0 -28 135 0 c74 0 135
2 135 4 0 35 -65 745 -76 835 -19 152 -35 205 -71 243 -23 24 -25 31 -15 46
37 50 73 146 88 232 22 129 23 419 0 512 -31 131 -76 197 -171 246 l-50 27
-282 3 -283 3 0 -1075z m488 848 c37 -25 52 -68 63 -179 9 -77 9 -145 1 -251
-12 -154 -32 -222 -70 -243 -12 -6 -64 -11 -116 -11 l-96 0 0 350 0 350 98 0
c72 0 103 -4 120 -16z"/>
<path d="M24270 5145 c0 -3 70 -279 155 -614 l155 -608 0 -462 0 -461 130 0
130 0 0 461 0 461 155 609 c85 334 155 610 155 614 0 3 -60 5 -133 5 l-133 0
-80 -412 c-60 -309 -83 -413 -94 -413 -10 0 -34 104 -94 413 l-80 412 -133 0
c-73 0 -133 -2 -133 -5z"/>
<path d="M25434 5103 c3 -27 44 -491 91 -1033 47 -542 87 -1004 91 -1027 l5
-43 159 0 c156 0 158 0 163 23 3 12 38 261 78 554 40 293 75 531 76 529 3 -3
153 -1087 153 -1103 0 -2 72 -3 160 -3 l159 0 5 33 c3 17 44 475 91 1017 47
542 88 1011 91 1043 l7 57 -141 0 -140 0 -6 -82 c-4 -46 -22 -407 -42 -803
-19 -396 -39 -724 -43 -728 -5 -5 -11 -4 -15 1 -3 5 -39 349 -81 763 -41 415
-77 775 -81 802 l-6 47 -114 0 c-63 0 -114 -3 -114 -7 -1 -45 -161 -1607 -165
-1611 -3 -3 -9 -1 -14 4 -5 5 -25 342 -45 749 -20 407 -39 768 -42 803 l-6 62
-140 0 -140 0 6 -47z"/>
<path d="M28390 4075 l0 -1075 310 0 310 0 0 135 0 135 -175 0 -175 0 0 940 0
940 -135 0 -135 0 0 -1075z"/>
<path d="M29340 4075 l0 -1075 308 2 307 3 3 133 3 132 -176 0 -175 0 0 940 0
940 -135 0 -135 0 0 -1075z"/>
<path d="M1585 2176 c-92 -23 -149 -66 -187 -139 -47 -92 -33 -199 47 -362 69
-140 179 -287 345 -458 l130 -135 -198 -318 -199 -319 -169 -5 c-182 -6 -219
-16 -271 -72 -27 -29 -62 -105 -63 -135 l0 -23 413 0 412 1 233 375 234 375
-20 47 c-29 67 -36 130 -22 198 34 164 144 260 325 283 l49 6 108 173 c60 96
106 177 103 181 -8 14 -305 147 -445 199 -150 56 -320 104 -454 127 -105 18
-300 18 -371 1z"/>
<path d="M11132 1297 c-73 -73 -88 -107 -60 -135 20 -20 45 -14 83 19 l35 31
0 -365 c0 -205 4 -377 9 -390 13 -34 46 -43 77 -22 l25 16 -3 445 c-3 428 -4
446 -22 460 -40 29 -68 18 -144 -59z"/>
<path d="M12833 1360 c-89 -19 -159 -80 -195 -170 -21 -52 -23 -70 -23 -315 0
-253 1 -261 24 -307 69 -140 266 -204 413 -134 64 30 111 79 142 145 31 68 29
216 -3 289 -31 70 -96 126 -169 148 -81 23 -191 15 -262 -21 l-53 -27 6 76
c14 157 68 219 191 218 71 0 110 -13 147 -48 31 -30 65 -29 85 2 13 18 12 25
-9 55 -47 70 -186 112 -294 89z m205 -468 c88 -63 104 -234 29 -319 -50 -57
-121 -76 -216 -57 -45 9 -115 75 -129 122 -26 87 -12 181 33 226 42 43 85 55
175 53 60 -2 81 -7 108 -25z"/>
<path d="M6519 1327 c-86 -44 -123 -101 -123 -191 0 -108 52 -165 232 -259
167 -87 222 -138 222 -207 0 -75 -59 -141 -139 -155 -62 -10 -118 11 -178 68
-48 46 -56 50 -81 41 -20 -7 -28 -17 -30 -39 -4 -44 45 -97 126 -137 59 -29
76 -33 147 -33 55 1 90 6 111 18 118 62 175 189 140 309 -23 81 -89 138 -256
223 -158 80 -190 108 -190 169 0 52 21 83 74 107 84 38 168 20 240 -52 35 -36
49 -36 74 -4 26 33 19 56 -33 104 -60 56 -103 71 -195 71 -69 0 -86 -4 -141
-33z"/>
<path d="M7320 1340 c-19 -19 -20 -33 -20 -448 0 -463 1 -472 54 -472 46 0 46
-2 46 472 0 432 -1 448 -19 458 -28 14 -38 13 -61 -10z"/>
<path d="M8237 1342 c-15 -16 -17 -55 -17 -338 l0 -319 -169 330 -169 330 -38
0 -39 0 -3 -449 c-1 -323 1 -453 9 -462 16 -20 53 -17 72 4 15 16 17 55 18
333 l0 314 156 -310 c85 -170 164 -320 176 -333 22 -24 56 -29 75 -10 9 9 12
125 12 460 0 432 -1 448 -19 458 -28 15 -46 12 -64 -8z"/>
<path d="M8873 1346 c-69 -22 -108 -52 -139 -108 l-29 -53 -3 -272 c-3 -231
-1 -282 13 -330 34 -115 119 -163 290 -163 153 0 230 35 271 124 13 28 26 76
30 106 5 46 3 59 -14 80 -17 21 -24 23 -48 15 -25 -9 -29 -18 -39 -71 -21
-116 -72 -154 -202 -154 -105 1 -152 22 -182 82 -20 42 -21 59 -21 284 0 229
1 242 23 284 12 26 36 53 55 64 42 24 152 32 211 16 52 -14 101 -59 101 -92 0
-54 55 -83 90 -48 18 18 20 28 15 63 -4 23 -13 54 -21 69 -21 41 -83 86 -140
103 -63 18 -203 19 -261 1z"/>
<path d="M9697 1342 c-15 -17 -17 -63 -17 -458 0 -329 3 -443 12 -452 9 -9 70
-12 214 -12 215 0 234 4 234 50 0 44 -22 50 -196 50 l-164 0 0 165 0 165 140
0 c127 0 140 2 150 19 14 27 13 47 -6 65 -12 13 -41 16 -150 16 l-134 0 0 155
0 155 168 0 c117 0 172 4 180 12 18 18 15 53 -6 71 -16 15 -46 17 -214 17
-176 0 -196 -2 -211 -18z"/>
<path d="M11880 1351 c-87 -27 -156 -87 -194 -170 -29 -66 -28 -197 3 -266 48
-108 141 -165 269 -165 81 0 128 12 177 46 l38 25 -6 -87 c-11 -158 -58 -216
-181 -222 -77 -4 -117 8 -164 51 -31 29 -76 14 -80 -27 -4 -36 33 -77 96 -106
39 -19 60 -21 147 -18 93 3 106 6 151 33 59 37 106 109 123 192 9 39 11 134 9
293 -3 220 -4 238 -25 276 -31 59 -106 121 -166 139 -53 16 -154 19 -197 6z
m198 -120 c51 -26 82 -76 89 -146 14 -133 -53 -219 -182 -232 -61 -6 -113 8
-157 45 -42 35 -59 82 -59 159 0 101 44 163 141 194 39 13 123 3 168 -20z"/>
<path d="M13798 1347 c-140 -40 -216 -153 -240 -357 -14 -119 0 -278 32 -363
58 -154 181 -229 349 -213 153 14 246 103 288 273 20 83 22 292 4 378 -29 133
-93 225 -189 267 -57 25 -180 33 -244 15z m210 -116 c79 -40 117 -117 133
-268 20 -188 -25 -352 -112 -410 -36 -23 -55 -29 -121 -32 -69 -3 -82 0 -122
23 -25 14 -55 40 -67 57 -57 80 -82 270 -55 418 16 89 51 159 97 193 68 51
169 59 247 19z"/>
</g>
</svg>
