<?xml version="1.0" standalone="no"?>
<!DOCTYPE svg PUBLIC "-//W3C//DTD SVG 20010904//EN"
 "http://www.w3.org/TR/2001/REC-SVG-20010904/DTD/svg10.dtd">
<svg version="1.0" xmlns="http://www.w3.org/2000/svg"
 width="1574.000000pt" height="1602.000000pt" viewBox="0 0 1574.000000 1602.000000"
 preserveAspectRatio="xMidYMid meet">

<g transform="translate(0.000000,1602.000000) scale(0.100000,-0.100000)"
fill="#000000" stroke="none">
<path d="M8100 14359 c-14 -6 -308 -109 -654 -230 -347 -121 -648 -230 -670
-243 -54 -32 -79 -59 -113 -126 -23 -46 -28 -67 -28 -132 0 -42 5 -81 10 -86
6 -6 75 14 185 54 184 66 236 75 311 53 84 -26 156 -117 166 -212 9 -92 -37
-188 -111 -232 -23 -13 -117 -51 -211 -85 -93 -34 -171 -63 -173 -65 -8 -7 39
-82 70 -112 63 -59 113 -78 208 -77 80 1 97 5 275 71 l190 71 3 -45 c4 -52
-21 -132 -56 -186 -50 -75 -57 -78 -557 -260 -144 -52 -290 -109 -325 -127
-165 -83 -295 -217 -375 -385 -49 -104 -71 -188 -81 -303 l-7 -82 -538 0 -539
0 0 230 c0 209 -2 234 -20 269 -33 66 -165 172 -272 219 -5 2 -8 -235 -8 -528
0 -594 2 -620 66 -727 64 -106 161 -189 276 -236 52 -21 65 -22 793 -28 812
-6 808 -6 1009 -70 202 -65 363 -165 527 -328 202 -201 322 -430 370 -709 64
-376 -33 -754 -269 -1052 -93 -117 -107 -150 -107 -250 0 -77 3 -92 33 -153
60 -121 183 -193 317 -185 86 6 72 -1 497 249 185 110 341 199 347 199 5 0 32
-22 59 -48 87 -84 115 -211 72 -325 -16 -43 -53 -90 -175 -225 l-155 -170
-218 -4 c-206 -3 -220 -4 -266 -27 -88 -44 -157 -135 -172 -229 l-7 -42 490 0
490 0 7 55 c27 230 209 417 444 456 l72 12 -2 444 -3 444 -68 24 c-80 28 -166
84 -214 140 -54 63 -112 189 -123 270 -17 122 -24 112 88 112 120 0 173 13
282 65 169 81 302 257 335 443 12 66 14 291 15 1305 0 1171 1 1227 19 1265 22
47 64 89 104 104 39 15 121 14 160 -3 44 -18 94 -77 107 -127 11 -38 10 -42
-12 -57 -13 -9 -40 -34 -61 -56 -150 -160 -186 -385 -92 -583 75 -160 229
-270 418 -298 l47 -7 0 508 c0 555 0 556 -59 672 -60 118 -163 204 -294 243
-55 17 -88 21 -170 17 -93 -3 -109 -7 -179 -40 -129 -61 -221 -163 -270 -299
l-23 -64 -5 -1275 c-5 -1215 -6 -1277 -24 -1312 -32 -66 -91 -123 -157 -153
-55 -24 -71 -27 -138 -23 -60 3 -88 11 -130 33 -97 53 -101 62 -289 527 l-140
345 279 939 c294 989 313 1055 335 1199 41 266 -9 586 -132 845 -154 323 -355
534 -685 719 -62 34 -63 34 -99 20z"/>
<path d="M5371 13505 c-173 -226 -327 -437 -343 -467 -101 -200 -65 -438 90
-590 31 -31 210 -174 397 -316 l340 -260 16 62 c36 132 104 272 182 373 46 59
156 169 215 213 l33 25 -400 305 c-221 168 -401 310 -401 316 0 7 55 83 122
170 155 202 180 251 179 344 -1 86 -27 152 -79 203 l-37 35 -314 -413z"/>
<path d="M6147 10039 c-170 -23 -273 -84 -329 -194 -117 -228 77 -635 514
-1080 92 -93 168 -171 168 -172 0 -1 -71 -115 -158 -255 -87 -139 -205 -328
-262 -420 l-103 -168 -191 0 c-130 0 -207 -5 -243 -14 -62 -17 -133 -65 -168
-115 -31 -45 -58 -122 -53 -153 l3 -23 520 -3 c286 -1 529 0 541 2 13 4 58 66
131 183 61 98 199 319 306 491 l195 313 -24 55 c-75 171 -44 357 83 494 82 89
166 128 297 139 l78 6 143 230 c78 127 140 233 138 238 -12 21 -359 180 -548
251 -238 90 -432 145 -640 182 -103 19 -311 26 -398 13z"/>
<path d="M1805 6763 c-11 -3 -30 -14 -42 -26 l-23 -20 0 -648 0 -648 22 -15
c26 -18 131 -22 172 -6 l26 10 0 336 c0 186 2 335 5 332 3 -3 57 -148 119
-323 69 -192 122 -326 135 -339 31 -30 145 -31 169 0 10 11 69 163 132 337
l115 317 2 -322 c3 -315 3 -323 24 -340 24 -20 129 -25 173 -8 l26 10 0 653 0
654 -25 23 c-32 30 -118 39 -161 17 -27 -14 -43 -54 -199 -471 -93 -250 -171
-453 -173 -451 -3 2 -82 207 -176 456 -142 373 -176 454 -197 465 -23 13 -84
16 -124 7z"/>
<path d="M3414 6756 c-114 -26 -186 -82 -236 -184 l-33 -67 0 -430 0 -430 27
-57 c32 -69 92 -129 166 -165 52 -25 67 -28 167 -28 103 0 113 2 163 30 92 50
145 137 164 267 10 68 10 72 -12 90 -26 21 -155 25 -181 5 -9 -7 -18 -35 -22
-67 -8 -69 -37 -100 -99 -107 -63 -7 -114 17 -136 64 -15 34 -17 80 -17 403 0
330 2 368 18 397 22 40 64 63 116 63 78 0 108 -28 118 -112 8 -68 30 -82 123
-76 97 5 104 14 91 112 -14 100 -42 163 -94 214 -79 77 -199 106 -323 78z"/>
<path d="M4094 6756 c-18 -14 -19 -33 -19 -674 0 -544 2 -662 14 -675 12 -15
43 -17 262 -17 l249 0 11 28 c14 35 14 145 -1 171 -10 20 -19 21 -160 21
l-150 0 0 175 0 175 104 0 c79 0 106 4 116 15 18 21 24 126 10 169 l-12 36
-109 0 -109 0 0 180 0 180 144 0 c174 0 171 -2 171 115 0 55 -5 87 -14 98 -12
15 -42 17 -250 17 -189 0 -241 -3 -257 -14z"/>
<path d="M4910 6752 c-25 -12 -36 -25 -38 -44 -3 -24 191 -1242 203 -1276 9
-26 73 -42 165 -42 92 0 155 16 165 42 9 23 205 1240 205 1270 0 25 -7 32 -46
50 -50 22 -134 22 -157 -1 -6 -6 -45 -217 -87 -468 -43 -252 -80 -451 -83
-443 -3 8 -39 215 -80 459 -61 361 -78 447 -93 458 -25 19 -113 16 -154 -5z"/>
<path d="M6059 6761 c-98 -18 -173 -77 -218 -171 l-26 -55 -3 -441 c-3 -426
-2 -443 18 -497 29 -77 78 -137 141 -172 48 -26 66 -30 155 -33 130 -5 193 12
258 69 26 23 59 65 74 93 l27 51 0 470 0 470 -28 57 c-32 66 -92 120 -158 143
-53 19 -177 27 -240 16z m150 -234 c14 -6 34 -28 45 -47 20 -34 21 -50 21
-405 0 -411 -1 -417 -67 -451 -38 -20 -101 -14 -130 13 -46 40 -48 61 -48 443
0 336 1 363 19 399 11 20 30 42 43 48 31 16 88 15 117 0z"/>
<path d="M6763 6760 c-39 -9 -60 -25 -68 -52 -5 -13 38 -125 124 -332 l131
-314 0 -326 0 -326 26 -10 c41 -16 146 -12 172 6 22 15 22 16 22 343 l0 328
125 304 c69 167 124 313 123 323 -2 10 -15 28 -30 39 -34 26 -140 30 -162 7
-12 -13 -41 -84 -161 -395 -4 -11 -9 -15 -11 -10 -2 6 -37 96 -78 200 -68 176
-76 191 -107 207 -36 19 -55 20 -106 8z"/>
<path d="M8519 6757 c-133 -38 -206 -122 -230 -266 -18 -106 0 -190 66 -316
l52 -100 -34 -50 c-125 -182 -150 -323 -82 -462 58 -119 158 -178 299 -176 85
2 141 19 206 63 l45 30 74 -25 c40 -14 83 -25 94 -25 34 0 56 46 55 115 -1 68
-16 105 -44 105 -10 0 -21 4 -24 8 -2 4 11 51 31 103 28 74 36 110 37 168 1
69 -1 75 -27 94 -20 16 -43 21 -86 22 -74 0 -101 -20 -101 -76 0 -46 -19 -139
-28 -139 -4 0 -14 10 -21 23 -8 12 -41 64 -72 115 l-58 92 80 93 c46 53 95
123 116 166 32 64 37 83 37 145 0 93 -29 161 -96 221 -75 67 -197 98 -289 72z
m53 -950 c20 -29 55 -78 77 -109 l42 -57 -28 -14 c-44 -22 -101 -29 -138 -17
-46 15 -62 56 -48 124 13 59 40 126 51 126 4 -1 23 -24 44 -53z"/>
<path d="M10130 6757 c-96 -27 -164 -89 -198 -180 -31 -82 -37 -162 -18 -236
30 -117 69 -175 223 -329 162 -162 196 -212 197 -283 1 -40 -4 -53 -28 -78
-65 -67 -161 -39 -182 54 -4 16 -14 35 -23 42 -25 19 -151 17 -180 -3 -21 -15
-23 -22 -16 -68 9 -72 36 -127 90 -185 60 -64 127 -93 228 -99 71 -4 82 -2
141 27 162 79 232 245 177 420 -31 98 -66 148 -223 308 -161 164 -187 205
-188 289 0 42 4 54 28 76 15 14 41 29 58 33 44 9 100 -16 108 -48 4 -16 17
-29 37 -36 43 -15 128 -14 159 2 22 11 25 19 22 56 -6 89 -75 186 -160 224
-57 25 -189 32 -252 14z"/>
<path d="M11002 6760 c-67 -14 -142 -60 -178 -110 -64 -88 -66 -105 -62 -595
l3 -440 34 -63 c63 -117 147 -162 300 -162 157 0 251 51 308 168 l28 57 3 443
c3 398 2 448 -14 495 -33 99 -91 162 -176 193 -53 19 -188 26 -246 14z m158
-235 c64 -33 65 -41 65 -445 0 -329 -2 -369 -18 -400 -33 -67 -117 -91 -171
-49 -56 44 -56 47 -56 442 0 245 4 375 11 396 22 62 105 89 169 56z"/>
<path d="M11733 6755 c-17 -7 -36 -22 -42 -34 -8 -13 -11 -222 -11 -664 l0
-644 25 -11 c34 -16 134 -15 165 1 l25 13 5 356 5 356 144 -355 c80 -196 151
-362 160 -370 24 -25 134 -13 166 17 l25 23 0 648 c0 589 -1 648 -17 660 -10
9 -42 14 -88 14 -46 0 -78 -5 -88 -14 -15 -12 -17 -50 -17 -369 0 -196 -4
-352 -8 -346 -5 5 -71 160 -147 344 -76 184 -144 342 -152 351 -13 16 -77 39
-104 39 -8 -1 -28 -7 -46 -15z"/>
<path d="M12877 6760 c-131 -34 -218 -141 -233 -291 -8 -80 6 -149 49 -239 25
-52 61 -95 181 -217 186 -188 228 -260 194 -329 -17 -36 -73 -74 -109 -74 -34
0 -85 48 -94 90 -10 45 -39 60 -115 60 -92 0 -114 -17 -107 -81 25 -210 248
-344 443 -266 164 65 245 231 199 407 -28 108 -61 156 -221 320 -83 85 -159
171 -169 190 -41 79 -38 163 8 192 60 40 138 28 156 -23 6 -17 21 -33 36 -39
57 -22 177 -6 188 24 8 19 -10 91 -32 134 -26 50 -87 107 -136 128 -47 19
-184 27 -238 14z"/>
<path d="M1804 5043 c-12 -2 -30 -13 -40 -25 -18 -19 -19 -67 -22 -1177 -1
-636 0 -1171 3 -1189 12 -66 17 -67 415 -67 l355 0 47 27 c62 37 101 85 153
193 143 291 199 853 140 1393 -20 182 -30 234 -71 387 -61 229 -161 393 -269
444 -43 20 -58 21 -367 20 -178 -1 -333 -4 -344 -6z m531 -420 c33 -36 58
-104 84 -229 38 -184 45 -287 46 -624 0 -353 -12 -478 -58 -637 -28 -95 -48
-130 -85 -144 -34 -13 -147 -6 -167 11 -13 11 -15 116 -15 816 0 716 2 804 16
818 11 12 35 16 84 16 63 0 72 -3 95 -27z"/>
<path d="M3490 5041 c-52 -11 -78 -28 -97 -64 -17 -30 -18 -106 -21 -1178 -3
-1304 -12 -1178 88 -1204 30 -8 80 -15 110 -15 70 0 171 25 188 47 9 13 12
124 12 475 l0 458 88 0 88 0 169 -412 c231 -566 217 -535 262 -554 74 -31 217
2 284 66 67 64 75 38 -226 760 -42 102 -79 190 -81 196 -3 6 18 26 46 44 72
46 156 143 195 225 56 118 67 172 72 370 4 155 2 194 -16 280 -39 191 -136
342 -281 437 -105 68 -125 71 -505 74 -187 1 -356 -1 -375 -5z m670 -400 c90
-49 111 -108 111 -316 0 -166 -14 -235 -58 -293 -51 -67 -68 -72 -265 -72
l-178 0 0 351 0 351 183 -4 c128 -2 189 -7 207 -17z"/>
<path d="M5239 5034 c-30 -9 -59 -27 -79 -51 -27 -31 -31 -41 -26 -73 3 -20
107 -279 231 -575 l225 -539 0 -584 0 -583 45 -20 c96 -43 282 -33 332 17 l23
23 0 584 0 583 156 380 c253 618 294 719 294 736 0 29 -49 76 -98 95 -68 26
-195 25 -242 -2 -32 -20 -41 -38 -166 -365 -73 -189 -136 -351 -141 -359 -6
-9 -49 90 -143 330 -91 234 -143 353 -160 371 -47 47 -157 61 -251 32z"/>
<path d="M6912 5040 c-45 -11 -100 -50 -113 -81 -9 -22 24 -225 186 -1160 187
-1082 197 -1135 222 -1161 34 -35 80 -50 157 -51 72 -1 154 24 185 57 19 20
41 120 145 642 78 398 124 610 128 594 4 -14 59 -293 123 -620 129 -660 118
-626 209 -657 104 -36 234 -14 278 48 15 19 65 290 214 1153 218 1260 208
1165 128 1212 -59 35 -175 44 -256 20 -30 -9 -60 -22 -66 -29 -6 -7 -55 -271
-109 -585 -54 -315 -100 -572 -103 -572 -3 0 -52 242 -109 538 -57 295 -107
554 -112 574 -8 30 -19 43 -52 60 -36 20 -57 23 -152 23 -95 0 -116 -3 -152
-23 -28 -14 -45 -31 -49 -48 -4 -14 -55 -276 -114 -582 -59 -307 -110 -550
-113 -542 -3 8 -49 269 -102 579 -52 310 -100 570 -106 578 -29 34 -181 53
-267 33z"/>
<path d="M9679 5041 c-45 -9 -103 -34 -113 -49 -2 -4 -89 -519 -192 -1143
-211 -1278 -202 -1179 -115 -1221 39 -19 62 -23 146 -23 107 0 158 16 169 53
6 18 76 410 76 425 0 4 94 7 208 7 l208 0 34 -212 c37 -228 45 -249 106 -274
40 -17 153 -18 205 -3 49 15 105 61 113 94 8 30 -360 2284 -376 2302 -24 29
-112 45 -268 48 -85 2 -176 0 -201 -4z m250 -1129 c35 -218 66 -403 69 -409 3
-10 -29 -13 -138 -13 l-142 0 5 23 c3 12 33 196 68 410 35 213 66 387 69 387
3 0 34 -179 69 -398z"/>
<path d="M11016 5009 c-22 -5 -45 -14 -53 -20 -19 -16 -19 -2321 0 -2359 24
-47 56 -50 500 -48 l412 3 15 30 c21 43 21 287 0 330 l-15 30 -263 3 -262 2
-2 1003 -3 1002 -30 15 c-36 17 -240 24 -299 9z"/>
<path d="M12403 5011 c-68 -18 -63 86 -63 -1197 0 -847 3 -1170 11 -1188 7
-14 19 -28 28 -33 9 -4 211 -9 449 -11 l433 -3 17 38 c24 54 24 272 0 326
l-17 37 -260 0 -261 0 -2 1002 -3 1003 -30 14 c-34 17 -250 25 -302 12z"/>
<path d="M3812 1889 c-61 -31 -85 -70 -90 -147 l-4 -63 49 -48 c38 -37 71 -56
144 -84 115 -45 149 -76 156 -141 5 -40 2 -48 -24 -75 -77 -76 -220 -57 -270
37 -10 17 -21 32 -25 32 -13 0 -58 -23 -58 -30 0 -3 13 -26 28 -51 19 -29 46
-54 80 -72 159 -86 352 2 352 160 0 79 -59 136 -201 195 -106 44 -135 67 -148
116 -20 71 21 114 115 120 l65 4 48 -49 c46 -48 49 -49 75 -36 14 7 26 18 26
23 0 20 -76 94 -115 111 -56 26 -148 25 -203 -2z"/>
<path d="M6313 1890 c-62 -25 -142 -94 -176 -153 -101 -176 -33 -394 152 -484
99 -49 242 -42 328 15 l42 28 -22 27 -22 27 -55 -28 c-73 -36 -173 -38 -237
-4 -130 68 -189 230 -129 357 28 61 103 130 160 147 69 21 146 16 204 -13 l52
-26 22 24 c23 24 23 25 3 40 -79 60 -228 80 -322 43z"/>
<path d="M9295 1891 c-77 -36 -125 -111 -125 -196 0 -61 19 -103 67 -146 51
-46 100 -63 169 -57 37 3 51 1 45 -6 -22 -29 -178 -243 -185 -253 -5 -10 3
-13 32 -13 38 0 39 1 150 154 138 190 156 227 157 323 0 63 -3 76 -30 114 -61
87 -187 123 -280 80z m196 -89 c42 -46 55 -100 38 -153 -23 -71 -103 -109
-183 -88 -101 27 -141 163 -68 231 45 42 64 49 126 45 51 -3 63 -8 87 -35z"/>
<path d="M11019 1883 c-98 -50 -153 -166 -153 -323 0 -209 103 -340 268 -340
103 0 168 45 218 150 28 57 32 78 36 171 5 124 -10 190 -60 265 -67 100 -199
132 -309 77z m194 -62 c102 -67 140 -289 72 -426 -30 -61 -64 -90 -121 -103
-122 -26 -210 67 -221 237 -10 146 30 255 108 294 46 23 127 22 162 -2z"/>
<path d="M4580 1565 l0 -335 35 0 35 0 0 335 0 335 -35 0 -35 0 0 -335z"/>
<path d="M5100 1565 l0 -335 40 0 40 0 2 262 3 261 203 -261 c184 -238 205
-262 232 -262 l30 0 0 335 0 335 -35 0 -35 0 0 -260 c0 -143 -3 -260 -7 -260
-5 0 -98 117 -208 260 -189 245 -202 260 -232 260 l-33 0 0 -335z"/>
<path d="M7090 1565 l0 -335 200 0 200 0 0 35 0 35 -165 0 -165 0 0 115 0 115
125 0 125 0 0 35 0 34 -122 3 -123 3 -3 113 -3 112 161 0 160 0 0 35 0 35
-195 0 -195 0 0 -335z"/>
<path d="M8540 1865 l0 -35 50 0 50 0 0 -300 0 -300 35 0 35 0 0 335 0 335
-85 0 -85 0 0 -35z"/>
<path d="M10167 1750 c-120 -166 -146 -216 -154 -294 -14 -133 82 -235 220
-236 198 -1 294 240 145 365 -51 43 -95 58 -160 53 -39 -3 -55 -1 -49 6 38 49
181 247 181 251 0 3 -17 5 -37 5 -37 -1 -40 -4 -146 -150z m154 -207 c111 -94
54 -254 -92 -256 -145 -2 -204 197 -78 265 53 28 130 24 170 -9z"/>
</g>
</svg>
